<svg xmlns="http://www.w3.org/2000/svg" viewBox="0 0 32 32" role="img" aria-label="Subtract">
  <g stroke="#526B80" stroke-width="1.1" stroke-linejoin="round">
    <path d="M10 16 16 13V17L10 20Z" fill="#1565C0"/>
    <path d="M16 13 22 16V20L16 17Z" fill="#6DB7ED"/>
    <path d="M10 20 16 17 22 20 16 23Z" fill="#6DB7ED"/>
    <path d="M4 13 10 16V20L16 23V27L4 21Z" fill="#6DB7ED"/>
    <path d="M16 23 22 20V16L28 13V21L16 27Z" fill="#1565C0"/>
    <path d="M4 13 16 7 28 13 22 16 16 13 10 16Z" fill="#6DB7ED"/>
  </g>
  <path d="m5 13 5 2.5 6-3 6 3 5-2.5" fill="none" stroke="#F4F8FC" stroke-width=".8" stroke-opacity=".65"/>
</svg>
